<?xml version="1.0" standalone="no"?>
<!DOCTYPE svg PUBLIC "-//W3C//DTD SVG 20010904//EN"
 "http://www.w3.org/TR/2001/REC-SVG-20010904/DTD/svg10.dtd">
<svg version="1.0" xmlns="http://www.w3.org/2000/svg"
 width="700.000000pt" height="700.000000pt" viewBox="0 0 700.000000 700.000000"
 preserveAspectRatio="xMidYMid meet">
<metadata>
Created by potrace 1.14, written by Peter Selinger 2001-2017
</metadata>
<g transform="translate(0.000000,700.000000) scale(0.100000,-0.100000)"
fill="#000000" stroke="none">
<path d="M1229 6690 c-427 -73 -771 -384 -896 -811 l-28 -94 -3 -2245 c-3
-2459 -6 -2312 55 -2490 110 -321 372 -584 693 -693 178 -61 32 -58 2485 -55
l2240 3 97 27 c194 53 356 147 498 288 144 142 244 313 298 508 l27 97 0 2275
0 2275 -27 97 c-106 386 -400 683 -788 795 l-95 28 -2255 1 c-1240 1 -2276 -2
-2301 -6z m938 -2575 c212 -374 388 -683 392 -688 4 -4 182 303 396 683 l389
690 128 0 128 0 0 -1275 0 -1275 -145 0 -145 0 -2 946 -3 946 -317 -559 -316
-558 -109 -3 -108 -3 -325 573 -325 573 -3 -957 -2 -958 -145 0 -145 0 0 1275
0 1276 136 -3 136 -3 385 -680z m3059 -1154 c168 -60 274 -221 261 -396 -3
-49 -14 -94 -31 -130 -36 -78 -122 -166 -199 -201 -55 -26 -73 -29 -162 -29
-93 0 -105 2 -167 33 -246 121 -303 440 -112 628 47 47 112 85 174 105 50 15
178 10 236 -10z"/>
</g>
</svg>
